<?xml version="1.0" encoding="utf-8"?>
<!-- Generator: Adobe Illustrator 26.0.3, SVG Export Plug-In . SVG Version: 6.00 Build 0)  -->
<svg version="1.1" id="Layer_1" xmlns="http://www.w3.org/2000/svg" xmlns:xlink="http://www.w3.org/1999/xlink" x="0px" y="0px"
	 viewBox="0 0 348.91 342" style="enable-background:new 0 0 348.91 342;" xml:space="preserve">
<style type="text/css">
	.st0{fill:#2998CB;}
</style>
<g>
	<g>
		<path class="st0" d="M73.95,185.84c-5.37,0-9.71,4.35-9.71,9.71c0,5.36,4.34,9.7,9.71,9.7c5.36,0,9.7-4.35,9.7-9.7
			C83.65,190.18,79.31,185.84,73.95,185.84z"/>
		<path class="st0" d="M336.44,136.64c-19.95-19.94-52.4-19.94-72.36,0c-21.84,21.84-22.21,56.52-0.92,86.3
			c13.72,19.17,22.13,51.56,10.68,73.81c-8,15.56-25.16,24.85-49.97,27.27c-0.9-46.4-41.99-53.31-49-74.61
			c20.72-19.47,34.09-47.64,37.31-78.83C222.59,70.04,151.86,0,151.86,0l-45.76,64.49C47.5,64.49,0,111.99,0,170.58
			c0,22.2,6.84,42.78,18.49,59.82c-3.05,2.07-5.05,5.56-5.05,9.52c0,6.36,5.16,11.53,11.52,11.53c3.35,0,6.34-1.45,8.44-3.73
			c19,17.91,44.53,28.96,72.69,28.96c7.26,0,14.25-0.74,20.95-2.14c-6.26,25.99,5.61,50.14-5.56,67.45c12.47,0,66.67,0,104.01,0
			c37.35,0,55.9-22.06,63.75-37.33c14.74-28.66,5.11-67.88-12-91.82c-12.48-17.45-20.21-44.67-0.91-63.96
			c13.19-13.2,34.66-13.2,47.85,0c9.54,9.53,9.84,24.83,0.97,34.76c2.84-3.93,4.05-8.73,4.05-13.73c0-6.03-2.35-11.7-6.61-15.97
			c-4.92-4.93-11.47-7.64-18.43-7.64c-6.97,0-13.52,2.71-18.44,7.64c-11.86,11.86-11.86,31.16,0,43.02
			c6.77,6.77,15.78,10.51,25.36,10.51c9.59,0,18.58-3.73,25.36-10.51C353.07,180.34,353.07,153.28,336.44,136.64z M18.67,242.09
			c-1.73,0-3.14-1.4-3.14-3.14c0-1.74,1.41-3.14,3.14-3.14c1.74,0,3.14,1.4,3.14,3.14C21.82,240.69,20.41,242.09,18.67,242.09z
			 M157.34,35.22c0,0,31.21,35.14,40.4,87.85C184.45,96.3,160.12,76,130.7,68.1L157.34,35.22z M96.39,243.53
			c-37.23,0-67.4-30.17-67.4-67.4c0-37.23,30.18-67.4,67.4-67.4c37.22,0,67.39,30.18,67.39,67.4
			C163.78,213.36,133.61,243.53,96.39,243.53z"/>
	</g>
</g>
</svg>
